<svg xmlns="http://www.w3.org/2000/svg" width="53.999" height="73.922" viewBox="0 0 53.999 73.922">
  <path id="Icon_awesome-award" data-name="Icon awesome-award" d="M13.657,52.356c-1.222-1.255-.585-.9-3.532-1.711a10.058,10.058,0,0,1-3.576-1.923L.169,64.782a2.3,2.3,0,0,0,2.17,3.181l7.409-.29,5.1,5.527a2.222,2.222,0,0,0,3.717-.716L25.88,54.058a9.891,9.891,0,0,1-12.223-1.7ZM53.83,64.782l-6.38-16.06a10.036,10.036,0,0,1-3.576,1.923c-2.963.814-2.313.459-3.532,1.711a9.893,9.893,0,0,1-12.224,1.7l7.319,18.425a2.222,2.222,0,0,0,3.717.716l5.1-5.527,7.409.29a2.3,2.3,0,0,0,2.17-3.181ZM36.984,49.088c2.149-2.245,2.395-2.052,5.455-2.908a5.8,5.8,0,0,0,4-4.184c1.052-4.1.779-3.605,3.649-6.605a6.1,6.1,0,0,0,1.465-5.714c-1.05-4.1-1.052-3.526,0-7.627a6.1,6.1,0,0,0-1.465-5.714c-2.87-3-2.6-2.506-3.649-6.605a5.8,5.8,0,0,0-4-4.184c-3.921-1.1-3.448-.811-6.321-3.813A5.5,5.5,0,0,0,30.649.2c-3.919,1.1-3.372,1.1-7.3,0a5.5,5.5,0,0,0-5.469,1.532c-2.87,3-2.4,2.714-6.32,3.813a5.8,5.8,0,0,0-4,4.184c-1.05,4.1-.779,3.605-3.649,6.605A6.1,6.1,0,0,0,2.444,22.05c1.05,4.095,1.052,3.523,0,7.626a6.1,6.1,0,0,0,1.465,5.716c2.87,3,2.6,2.5,3.649,6.605a5.8,5.8,0,0,0,4,4.184c3.147.881,3.382.742,5.453,2.908a5.481,5.481,0,0,0,6.995.84,5.457,5.457,0,0,1,5.981,0A5.479,5.479,0,0,0,36.984,49.088ZM13.733,25.405c0-7.656,5.94-13.863,13.266-13.863s13.266,6.207,13.266,13.863S34.326,39.268,27,39.268,13.733,33.061,13.733,25.405Z" transform="translate(0 0.001)" fill="#393939"/>
</svg>
