<svg xmlns="http://www.w3.org/2000/svg" width="55.66" height="59" viewBox="0 0 55.66 59">
  <g id="Group_4" data-name="Group 4" transform="translate(0 0)">
    <path id="Path_1" data-name="Path 1" d="M15.879,43.657l11.289,9.928,11.207-9.928L45.661,41.1l2.881-7.525-4.483-9.286H8.995L5.633,33.57,8.995,41.1Z" transform="translate(0.638 2.749)" fill="#f2f2f2"/>
    <ellipse id="Ellipse_1" data-name="Ellipse 1" cx="1.773" cy="1.761" rx="1.773" ry="1.761" transform="translate(26.1 27.162)" fill="#ffbd53"/>
    <rect id="Rectangle_91" data-name="Rectangle 91" width="55.66" height="4.512" rx="2.027" transform="translate(0 23.876)" fill="#ffbd53"/>
    <path id="Path_2" data-name="Path 2" d="M3.332,23.876C5.459,10.833,13.932,5.657,18.626,4.46a.835.835,0,0,1,1.017.666l2.1,10.531a.268.268,0,0,0,.53-.066l-.63-11.7A3.084,3.084,0,0,1,24.218.234a22.546,22.546,0,0,1,6.477,0,3.084,3.084,0,0,1,2.579,3.655l-.63,11.7a.268.268,0,0,0,.53.066l2.1-10.531a.834.834,0,0,1,1.017-.666c4.694,1.2,13.166,6.373,15.294,19.417Z" transform="translate(0.377)" fill="#ffbd53"/>
    <path id="Path_3" data-name="Path 3" d="M40.962,40.226H34.9a41.516,41.516,0,0,1-8.4,7.983,48.656,48.656,0,0,1-8.289-7.983h-6.15c2.97,4.955,8.125,9.781,14.35,14.22C33.157,49.941,38.166,45.145,40.962,40.226Z" transform="translate(1.365 4.554)" fill="#393939"/>
    <path id="Path_4" data-name="Path 4" d="M45.424,25.978h5.883a1.755,1.755,0,0,0,.918-.254,1.7,1.7,0,0,0,.665-.749,2,2,0,0,0,.169-.836V23.3a2.008,2.008,0,0,0-.169-.836,1.7,1.7,0,0,0-.665-.749,1.755,1.755,0,0,0-.918-.254H35.689a12.681,12.681,0,1,0,9.735,4.514ZM35.689,42.262a8.142,8.142,0,1,1,8.173-8.142,8.142,8.142,0,0,1-8.173,8.142Z" transform="translate(2.601 2.43)" fill="#393939" fill-rule="evenodd"/>
    <ellipse id="Ellipse_2" data-name="Ellipse 2" cx="3.749" cy="3.723" rx="3.749" ry="3.723" transform="translate(34.613 32.916)" fill="#393939"/>
    <path id="Path_5" data-name="Path 5" d="M7.636,25.978H1.752a1.755,1.755,0,0,1-.918-.254,1.7,1.7,0,0,1-.665-.749A2,2,0,0,1,0,24.139V23.3a2.008,2.008,0,0,1,.169-.836,1.7,1.7,0,0,1,.665-.749,1.755,1.755,0,0,1,.918-.254H17.371a12.681,12.681,0,1,1-9.735,4.514Zm9.735,16.284A8.142,8.142,0,1,0,9.2,34.12a8.142,8.142,0,0,0,8.171,8.142Z" transform="translate(0 2.43)" fill="#393939" fill-rule="evenodd"/>
    <ellipse id="Ellipse_3" data-name="Ellipse 3" cx="3.749" cy="3.723" rx="3.749" ry="3.723" transform="translate(13.548 32.916)" fill="#393939"/>
  </g>
</svg>
