<svg xmlns="http://www.w3.org/2000/svg" width="66.046" height="65.922" viewBox="0 0 66.046 65.922">
  <path id="Icon_ionic-md-globe" data-name="Icon ionic-md-globe" d="M36.4,3.375A32.961,32.961,0,1,0,69.421,36.336,32.992,32.992,0,0,0,36.4,3.375Zm-3.421,61.01A28.239,28.239,0,0,1,14.856,18.008a31.249,31.249,0,0,1,.32,3.831c-.26,3.771-.633,6.131,1.578,9.312.861,1.239,1.073,3.015,1.492,4.449.41,1.4,2.048,2.139,3.178,3,2.28,1.745,4.461,3.772,6.878,5.308,1.6,1.013,2.592,1.517,2.125,3.461a12.264,12.264,0,0,1-1.291,3.918c-.247.425.933,3.156,1.326,3.548,1.19,1.188,2.372,2.278,3.669,3.348C36.143,59.845,33.936,62,32.977,64.385Zm23.436-8.071a28.12,28.12,0,0,1-14.695,7.778,11.722,11.722,0,0,1,3.476-4.653,11.808,11.808,0,0,0,3.127-3.859A26.8,26.8,0,0,1,50.476,51.9c1.122-1.727-2.766-4.332-4.025-4.878a41.507,41.507,0,0,1-7.487-4.655c-1.795-1.26-5.439.658-7.465-.225-2.775-1.21-5.062-3.311-7.474-5.125-2.489-1.871-2.369-4.053-2.369-6.814,1.95.072,4.724-.539,6.018,1.027.409.494,1.813,2.7,2.753,1.916.768-.641-.569-3.209-.827-3.813-.795-1.856,1.811-2.58,3.144-3.839,1.74-1.642,5.473-4.218,5.178-5.4s-3.735-4.513-5.755-3.992c-.3.078-2.968,2.868-3.483,3.305q.02-1.366.041-2.731c.009-.575-1.075-1.165-1.024-1.536.127-.937,2.741-2.638,3.391-3.384-.455-.284-2.01-1.617-2.48-1.421-1.139.474-2.425.8-3.564,1.274a7.223,7.223,0,0,0-.105-1.13A28.075,28.075,0,0,1,32.135,8.4l2.236.9,1.579,1.87,1.576,1.622,1.377.443,2.188-2.059L40.526,9.7V8.381A28.027,28.027,0,0,1,52.516,13.1c-.64.057-1.344.151-2.137.252a7.122,7.122,0,0,0-1.106-.416c1.037,2.225,2.118,4.42,3.217,6.615,1.174,2.345,3.777,4.861,4.235,7.337.539,2.918.165,5.569.46,9,.284,3.306,3.735,7.063,3.735,7.063a7.491,7.491,0,0,0,2.919.353A28.066,28.066,0,0,1,56.413,56.313Z" transform="translate(-3.375 -3.375)" fill="#393939"/>
</svg>
