<svg xmlns="http://www.w3.org/2000/svg" xmlns:xlink="http://www.w3.org/1999/xlink" width="25.915" height="31.844" viewBox="0 0 25.915 31.844">
  <defs>
    <filter id="Icon_ionic-ios-arrow-forward" x="0" y="0" width="25.915" height="31.844" filterUnits="userSpaceOnUse">
      <feOffset dy="3" input="SourceAlpha"/>
      <feGaussianBlur stdDeviation="3" result="blur"/>
      <feFlood flood-opacity="0.161"/>
      <feComposite operator="in" in2="blur"/>
      <feComposite in="SourceGraphic"/>
    </filter>
    <filter id="Icon_ionic-ios-arrow-forward-2" x="0" y="0" width="25.915" height="31.844" filterUnits="userSpaceOnUse">
      <feOffset dy="3" input="SourceAlpha"/>
      <feGaussianBlur stdDeviation="3" result="blur-2"/>
      <feFlood flood-opacity="0.161" result="color"/>
      <feComposite operator="out" in="SourceGraphic" in2="blur-2"/>
      <feComposite operator="in" in="color"/>
      <feComposite operator="in" in2="SourceGraphic"/>
    </filter>
  </defs>
  <g data-type="innerShadowGroup">
    <g transform="matrix(1, 0, 0, 1, 0, 0)" filter="url(#Icon_ionic-ios-arrow-forward)">
      <path id="Icon_ionic-ios-arrow-forward-3" data-name="Icon ionic-ios-arrow-forward" d="M16.776,13.116,11.537,7.881a.985.985,0,0,1,0-1.4,1,1,0,0,1,1.4,0l5.935,5.931a.988.988,0,0,1,.029,1.364l-5.96,5.972a.989.989,0,0,1-1.4-1.4Z" transform="translate(28.16 26.04) rotate(180)" fill="#393939"/>
    </g>
    <g transform="matrix(1, 0, 0, 1, 0, 0)" filter="url(#Icon_ionic-ios-arrow-forward-2)">
      <path id="Icon_ionic-ios-arrow-forward-4" data-name="Icon ionic-ios-arrow-forward" d="M16.776,13.116,11.537,7.881a.985.985,0,0,1,0-1.4,1,1,0,0,1,1.4,0l5.935,5.931a.988.988,0,0,1,.029,1.364l-5.96,5.972a.989.989,0,0,1-1.4-1.4Z" transform="translate(28.16 26.04) rotate(180)" fill="#fff"/>
    </g>
  </g>
</svg>
