<svg xmlns="http://www.w3.org/2000/svg" width="319.233" height="59" viewBox="0 0 319.233 59">
  <g id="Group_4" data-name="Group 4" transform="translate(0 0)">
    <path id="Path_1" data-name="Path 1" d="M15.879,43.657l11.289,9.928,11.207-9.928L45.661,41.1l2.881-7.525-4.483-9.286H8.995L5.633,33.57,8.995,41.1Z" transform="translate(0.638 2.749)" fill="#f2f2f2"/>
    <ellipse id="Ellipse_1" data-name="Ellipse 1" cx="1.773" cy="1.761" rx="1.773" ry="1.761" transform="translate(26.1 27.162)" fill="#ffbd53"/>
    <rect id="Rectangle_91" data-name="Rectangle 91" width="55.66" height="4.512" rx="2.027" transform="translate(0 23.876)" fill="#ffbd53"/>
    <path id="Path_2" data-name="Path 2" d="M3.332,23.876C5.459,10.833,13.932,5.657,18.626,4.46a.835.835,0,0,1,1.017.666l2.1,10.531a.268.268,0,0,0,.53-.066l-.63-11.7A3.084,3.084,0,0,1,24.218.234a22.546,22.546,0,0,1,6.477,0,3.084,3.084,0,0,1,2.579,3.655l-.63,11.7a.268.268,0,0,0,.53.066l2.1-10.531a.834.834,0,0,1,1.017-.666c4.694,1.2,13.166,6.373,15.294,19.417Z" transform="translate(0.377 0)" fill="#ffbd53"/>
    <path id="Path_3" data-name="Path 3" d="M40.962,40.226H34.9a41.516,41.516,0,0,1-8.4,7.983,48.656,48.656,0,0,1-8.289-7.983h-6.15c2.97,4.955,8.125,9.781,14.35,14.22C33.157,49.941,38.166,45.145,40.962,40.226Z" transform="translate(1.365 4.554)" fill="#393939"/>
    <path id="Path_4" data-name="Path 4" d="M45.424,25.978h5.883a1.755,1.755,0,0,0,.918-.254,1.7,1.7,0,0,0,.665-.749,2,2,0,0,0,.169-.836V23.3a2.008,2.008,0,0,0-.169-.836,1.7,1.7,0,0,0-.665-.749,1.755,1.755,0,0,0-.918-.254H35.689a12.681,12.681,0,1,0,9.735,4.514ZM35.689,42.262a8.142,8.142,0,1,1,8.173-8.142A8.158,8.158,0,0,1,35.689,42.262Z" transform="translate(2.601 2.43)" fill="#393939" fill-rule="evenodd"/>
    <ellipse id="Ellipse_2" data-name="Ellipse 2" cx="3.749" cy="3.723" rx="3.749" ry="3.723" transform="translate(34.613 32.916)" fill="#393939"/>
    <path id="Path_5" data-name="Path 5" d="M7.636,25.978H1.752a1.755,1.755,0,0,1-.918-.254,1.7,1.7,0,0,1-.665-.749A2,2,0,0,1,0,24.139V23.3a2.008,2.008,0,0,1,.169-.836,1.7,1.7,0,0,1,.665-.749,1.755,1.755,0,0,1,.918-.254H17.371a12.681,12.681,0,1,1-9.735,4.514Zm9.735,16.284A8.142,8.142,0,1,0,9.2,34.12,8.158,8.158,0,0,0,17.371,42.262Z" transform="translate(0 2.43)" fill="#393939" fill-rule="evenodd"/>
    <ellipse id="Ellipse_3" data-name="Ellipse 3" cx="3.749" cy="3.723" rx="3.749" ry="3.723" transform="translate(13.548 32.916)" fill="#393939"/>
    <path id="Path_6" data-name="Path 6" d="M68.844,12a.843.843,0,0,0-.844.844V24.086a.843.843,0,0,0,.844.843h6.327a.844.844,0,0,0,.843-.794l.194-3.326a.843.843,0,0,1,.842-.794h1.414a.843.843,0,0,1,.844.844V37.111a.843.843,0,0,1-.844.843H76.191a.843.843,0,0,0-.844.844v5.755a.843.843,0,0,0,.844.844H91.917a.843.843,0,0,0,.844-.844V38.8a.843.843,0,0,0-.844-.844H89.692a.843.843,0,0,1-.843-.843V20.859a.843.843,0,0,1,.843-.844h1.367a.843.843,0,0,1,.842.794l.194,3.326a.844.844,0,0,0,.842.794h6.329a.843.843,0,0,0,.844-.843V12.844A.843.843,0,0,0,99.264,12Z" transform="translate(7.698 1.359)" fill="#393939"/>
    <path id="Path_7" data-name="Path 7" d="M103.626,37.111a.843.843,0,0,1-.844.843h-2.321a.843.843,0,0,0-.843.844v5.755a.843.843,0,0,0,.843.844H115.9a.844.844,0,0,0,.844-.844V39.5a.844.844,0,0,0-.779-.84l-2.164-.166a.844.844,0,0,1-.778-.842V35.458a.843.843,0,0,1,.843-.844h2.39a.846.846,0,0,1,.692.362L120.7,40.36a.839.839,0,0,1,.151.482v3.71a.843.843,0,0,0,.844.844h11.767a.843.843,0,0,0,.844-.844V38.8a.843.843,0,0,0-.844-.844H130.38a.841.841,0,0,1-.672-.335l-2.653-3.512a.881.881,0,0,1,.3-1.3c4.389-2.391,5.563-5.6,5.563-9.311,0-6.011-4.437-11.5-12.977-11.5H100.461a.843.843,0,0,0-.843.844v5.707a.843.843,0,0,0,.843.844h2.321a.843.843,0,0,1,.844.843Zm16.268-17.573c2.529,0,3.674,1.861,3.674,4.008s-1.24,4.008-3.578,4.008h-6.123a.843.843,0,0,1-.843-.843V20.381a.844.844,0,0,1,.843-.844Z" transform="translate(11.278 1.359)" fill="#393939"/>
    <path id="Path_8" data-name="Path 8" d="M134.613,12a.843.843,0,0,0-.843.844v5.8a.844.844,0,0,0,.843.844h2.273a.843.843,0,0,1,.844.843V37.111a.843.843,0,0,1-.844.843h-2.273a.843.843,0,0,0-.843.844v5.755a.843.843,0,0,0,.843.844h16.014a.843.843,0,0,0,.844-.844V38.99a.845.845,0,0,0-.8-.843L148.019,38a.843.843,0,0,1-.8-.842V35.41a.844.844,0,0,1,.844-.844h5.215c6.775-.047,13.359-3.434,13.359-11.259,0-7.871-5.582-11.307-13.359-11.307Zm12.61,9a.843.843,0,0,1,.844-.843h5.215c2.147,0,3.912,1.049,3.912,3.244,0,2.386-1.764,3.482-3.912,3.482h-5.215a.843.843,0,0,1-.844-.843Z" transform="translate(15.144 1.359)" fill="#393939"/>
    <g id="Group_3" data-name="Group 3" transform="translate(203.701 13.359)" opacity="0.5">
      <path id="Path_9" data-name="Path 9" d="M183.333,12.994a.527.527,0,0,1,.528-.528h6.073a4.8,4.8,0,0,1,1.72.288,3.811,3.811,0,0,1,1.276.774,3.193,3.193,0,0,1,.79,1.119A3.239,3.239,0,0,1,194,15.971a3.961,3.961,0,0,1-.14,1.112,2.683,2.683,0,0,1-.4.847,2.907,2.907,0,0,1-.633.659.907.907,0,0,0-.124,1.168,3.122,3.122,0,0,1,.485,1.137l.317,1.226a.528.528,0,0,0,.511.4h.1a.527.527,0,0,1,.528.524l.01,1.373a.527.527,0,0,1-.528.531h-2.644a.527.527,0,0,1-.52-.441l-.421-2.521a3.719,3.719,0,0,0-.23-.906,1.626,1.626,0,0,0-.4-.625,1.542,1.542,0,0,0-.626-.363,2.869,2.869,0,0,0-.864-.115h-.534a.527.527,0,0,0-.528.528v1.66a.528.528,0,0,0,.528.529h.089a.528.528,0,0,1,.528.527v1.2a.528.528,0,0,1-.528.528h-4.113a.527.527,0,0,1-.528-.528v-1.2a.527.527,0,0,1,.528-.527h.236a.528.528,0,0,0,.528-.529v-6.9a.527.527,0,0,0-.528-.528h-.236a.527.527,0,0,1-.528-.528Zm4.552,1.735a.527.527,0,0,0-.528.528v1.965a.527.527,0,0,0,.528.528h1.11a3.9,3.9,0,0,0,.839-.081,1.935,1.935,0,0,0,.642-.272,1.25,1.25,0,0,0,.412-.47,1.414,1.414,0,0,0,.148-.667,1.346,1.346,0,0,0-.519-1.128,2.448,2.448,0,0,0-1.523-.4Z" transform="translate(-182.946 -11.947)" fill="#393939"/>
      <path id="Path_10" data-name="Path 10" d="M196.88,20.851a.219.219,0,0,0-.218.239l.006.031a1.743,1.743,0,0,0,.3.635,2.123,2.123,0,0,0,.519.47,2.42,2.42,0,0,0,.658.288,3.027,3.027,0,0,0,.732.09,5.577,5.577,0,0,0,.7-.041q.337-.05.65-.124c.208-.055.412-.115.609-.181L201,22.2a.531.531,0,0,1,.652.246l.452.84a.517.517,0,0,1-.193.694c-.152.087-.3.167-.436.239a5.707,5.707,0,0,1-.783.33,4.485,4.485,0,0,1-.839.189,7.223,7.223,0,0,1-1.036.066,5.093,5.093,0,0,1-1.976-.362,4.165,4.165,0,0,1-2.353-2.461,5.157,5.157,0,0,1-.305-1.778,4.786,4.786,0,0,1,.322-1.761,4.341,4.341,0,0,1,.922-1.433,4.279,4.279,0,0,1,1.415-.971,4.579,4.579,0,0,1,1.828-.354,4.415,4.415,0,0,1,1.778.337,3.664,3.664,0,0,1,1.317.922,4.08,4.08,0,0,1,.823,1.383,5.391,5.391,0,0,1,.313,1.7,3.39,3.39,0,0,1,.024.411.407.407,0,0,1-.42.412Zm1.727-3.111a2.4,2.4,0,0,0-.79.116,1.532,1.532,0,0,0-.543.3,1.505,1.505,0,0,0-.354.436.362.362,0,0,0,.353.519h2.452a.389.389,0,0,0,.389-.527,1.4,1.4,0,0,0-.3-.436,1.292,1.292,0,0,0-.485-.3A1.959,1.959,0,0,0,198.607,17.739Z" transform="translate(-181.717 -11.583)" fill="#393939"/>
      <path id="Path_11" data-name="Path 11" d="M208.222,12.7a.527.527,0,0,1,.527-.528h2.674a.527.527,0,0,1,.528.528v9.5a.528.528,0,0,0,.528.529h.607a.527.527,0,0,1,.528.527v1.2a.527.527,0,0,1-.528.528h-3.546a.124.124,0,0,1-.124-.124.128.128,0,0,0-.184-.115,4.815,4.815,0,0,1-.73.272,3.393,3.393,0,0,1-.938.131,4.606,4.606,0,0,1-1.8-.345,4.369,4.369,0,0,1-1.407-.963,4.443,4.443,0,0,1-.914-1.424,4.891,4.891,0,0,1-.009-3.507,4.428,4.428,0,0,1,.906-1.416,4.248,4.248,0,0,1,1.39-.946,4.762,4.762,0,0,1,2.791-.238l.13.029a.609.609,0,0,0,.767-.552v-.826a.528.528,0,0,0-.528-.528h-.139a.527.527,0,0,1-.527-.528ZM207.7,22.87a1.981,1.981,0,0,0,.98-.281,2.268,2.268,0,0,0,.638-.561.47.47,0,0,0,.095-.292V19.546a.468.468,0,0,0-.092-.287,1.961,1.961,0,0,0-.657-.545,1.926,1.926,0,0,0-.963-.239,1.978,1.978,0,0,0-1.465.593,2.13,2.13,0,0,0-.445.691,2.41,2.41,0,0,0-.164.914,2.449,2.449,0,0,0,.164.913,2.13,2.13,0,0,0,.445.691,1.994,1.994,0,0,0,.658.429A2.482,2.482,0,0,0,207.7,22.87Z" transform="translate(-180.707 -11.981)" fill="#393939"/>
      <path id="Path_12" data-name="Path 12" d="M216,20.851a.218.218,0,0,0-.217.239.14.14,0,0,0,.006.031,1.708,1.708,0,0,0,.3.635,2.1,2.1,0,0,0,.519.47,2.4,2.4,0,0,0,.658.288,3.02,3.02,0,0,0,.733.09,5.589,5.589,0,0,0,.7-.041c.225-.033.441-.075.65-.124s.411-.115.609-.181l.167-.06a.531.531,0,0,1,.652.246l.451.84a.516.516,0,0,1-.193.694c-.151.087-.3.167-.436.239a5.636,5.636,0,0,1-.781.33,4.505,4.505,0,0,1-.839.189,7.24,7.24,0,0,1-1.038.066,5.088,5.088,0,0,1-1.975-.362,4.162,4.162,0,0,1-2.354-2.461,5.183,5.183,0,0,1-.3-1.778,4.808,4.808,0,0,1,.321-1.761,4.341,4.341,0,0,1,.922-1.433,4.3,4.3,0,0,1,1.416-.971,4.578,4.578,0,0,1,1.827-.354,4.408,4.408,0,0,1,1.778.337,3.654,3.654,0,0,1,1.317.922,4.065,4.065,0,0,1,.824,1.383,5.359,5.359,0,0,1,.312,1.7,3.392,3.392,0,0,1,.026.411.408.408,0,0,1-.421.412Zm1.727-3.111a2.4,2.4,0,0,0-.79.116,1.542,1.542,0,0,0-.543.3,1.506,1.506,0,0,0-.354.436.363.363,0,0,0,.354.519h2.451a.389.389,0,0,0,.389-.527,1.4,1.4,0,0,0-.3-.436,1.3,1.3,0,0,0-.485-.3A1.969,1.969,0,0,0,217.725,17.739Z" transform="translate(-179.552 -11.583)" fill="#393939"/>
      <path id="Path_13" data-name="Path 13" d="M226,15.942a.528.528,0,0,0,.528.528h.5a.527.527,0,0,1,.528.528v1.1a.527.527,0,0,1-.528.528h-.5a.527.527,0,0,0-.528.528v3.059a.528.528,0,0,0,.528.529h.517a.527.527,0,0,1,.528.527v1.2a.527.527,0,0,1-.528.528H222.8a.527.527,0,0,1-.528-.528v-1.2a.527.527,0,0,1,.528-.527h.22a.528.528,0,0,0,.528-.529V19.153a.527.527,0,0,0-.528-.528h-.237a.528.528,0,0,1-.528-.528V17a.528.528,0,0,1,.528-.528h.237a.528.528,0,0,0,.528-.528v-.888a3.093,3.093,0,0,1,.264-1.317,2.87,2.87,0,0,1,.7-.955,3.064,3.064,0,0,1,1.021-.584,3.712,3.712,0,0,1,1.21-.2,4.338,4.338,0,0,1,.839.073,3.648,3.648,0,0,1,.65.174,2.452,2.452,0,0,1,.469.23.423.423,0,0,1,.127.572l-.529.97a.542.542,0,0,1-.659.2,1.816,1.816,0,0,0-.584-.082,1.169,1.169,0,0,0-.42.075,1.011,1.011,0,0,0-.337.214,1,1,0,0,0-.223.354,1.311,1.311,0,0,0-.082.485Z" transform="translate(-178.539 -12)" fill="#393939"/>
      <path id="Path_14" data-name="Path 14" d="M228.322,16.971a.527.527,0,0,1,.528-.528h2.772a.527.527,0,0,1,.528.528v5.215a.528.528,0,0,0,.528.529h.13a.528.528,0,0,1,.528.527v1.2a.528.528,0,0,1-.528.528H228.85a.527.527,0,0,1-.528-.528v-1.2a.527.527,0,0,1,.528-.527h.228a.528.528,0,0,0,.528-.529V19.226a.527.527,0,0,0-.528-.527h-.228a.528.528,0,0,1-.528-.529Zm1.152-3.277a1.5,1.5,0,0,1,.107-.568,1.461,1.461,0,0,1,.774-.781,1.484,1.484,0,0,1,.584-.116,1.382,1.382,0,0,1,.56.116,1.461,1.461,0,0,1,.774.781,1.4,1.4,0,0,1,.115.568,1.461,1.461,0,0,1-.115.577,1.514,1.514,0,0,1-.313.461,1.487,1.487,0,0,1-.461.313,1.381,1.381,0,0,1-.56.115,1.441,1.441,0,0,1-1.045-.427,1.514,1.514,0,0,1-.313-.461A1.561,1.561,0,0,1,229.474,13.694Z" transform="translate(-177.852 -11.974)" fill="#393939"/>
      <path id="Path_15" data-name="Path 15" d="M241.175,19.652a1.572,1.572,0,0,0-.379-1.12,1.3,1.3,0,0,0-1-.411,2.053,2.053,0,0,0-1.594.756.487.487,0,0,0-.118.325v2.572a.528.528,0,0,0,.528.529h.327a.527.527,0,0,1,.528.527v1.2a.527.527,0,0,1-.528.528h-4.245a.527.527,0,0,1-.528-.528v-1.2a.527.527,0,0,1,.528-.527h.2a.529.529,0,0,0,.528-.529V18.813a.528.528,0,0,0-.528-.527h-.179a.528.528,0,0,1-.528-.529v-1.2a.527.527,0,0,1,.528-.528h3.111a.244.244,0,0,1,.245.245.271.271,0,0,0,.414.217,4.361,4.361,0,0,1,.779-.372,4,4,0,0,1,1.4-.247,3.139,3.139,0,0,1,2.371.864,3.471,3.471,0,0,1,.83,2.511v2.525a.529.529,0,0,0,.528.529h.155a.527.527,0,0,1,.528.527v1.2a.527.527,0,0,1-.528.528H241.7a.527.527,0,0,1-.528-.528Z" transform="translate(-177.191 -11.561)" fill="#393939"/>
      <path id="Path_16" data-name="Path 16" d="M244.957,16.971a.528.528,0,0,1,.528-.528h2.772a.527.527,0,0,1,.528.528v5.215a.529.529,0,0,0,.528.529h.13a.527.527,0,0,1,.528.527v1.2a.527.527,0,0,1-.528.528h-3.957a.528.528,0,0,1-.528-.528v-1.2a.528.528,0,0,1,.528-.527h.229a.528.528,0,0,0,.528-.529V19.226a.527.527,0,0,0-.528-.527h-.229a.529.529,0,0,1-.528-.529Zm1.152-3.277a1.477,1.477,0,0,1,.108-.568,1.456,1.456,0,0,1,.312-.469,1.453,1.453,0,0,1,1.045-.429,1.382,1.382,0,0,1,.56.116,1.469,1.469,0,0,1,.461.313,1.442,1.442,0,0,1,.313.469,1.4,1.4,0,0,1,.116.568,1.462,1.462,0,0,1-.116.577,1.482,1.482,0,0,1-.774.774,1.381,1.381,0,0,1-.56.115,1.474,1.474,0,0,1-.583-.115,1.471,1.471,0,0,1-.774-.774A1.539,1.539,0,0,1,246.109,13.694Z" transform="translate(-175.969 -11.974)" fill="#393939"/>
      <path id="Path_17" data-name="Path 17" d="M257.81,19.652a1.572,1.572,0,0,0-.378-1.12,1.3,1.3,0,0,0-1-.411,2.053,2.053,0,0,0-1.594.756.493.493,0,0,0-.118.325v2.572a.529.529,0,0,0,.528.529h.328a.528.528,0,0,1,.528.527v1.2a.528.528,0,0,1-.528.528h-4.246a.527.527,0,0,1-.528-.528v-1.2a.527.527,0,0,1,.528-.527h.2a.528.528,0,0,0,.528-.529V18.813a.527.527,0,0,0-.528-.527h-.179a.528.528,0,0,1-.528-.529v-1.2a.527.527,0,0,1,.528-.528h3.113a.245.245,0,0,1,.245.245.271.271,0,0,0,.414.217,4.326,4.326,0,0,1,.779-.372,3.991,3.991,0,0,1,1.4-.247,3.138,3.138,0,0,1,2.37.864,3.466,3.466,0,0,1,.832,2.511v2.525a.528.528,0,0,0,.528.529h.155a.528.528,0,0,1,.528.527v1.2a.528.528,0,0,1-.528.528h-2.839a.528.528,0,0,1-.528-.528Z" transform="translate(-175.308 -11.561)" fill="#393939"/>
      <path id="Path_18" data-name="Path 18" d="M267.928,24.164a.024.024,0,0,0-.036-.021,3.553,3.553,0,0,1-.886.358,3.856,3.856,0,0,1-.938.116,4.8,4.8,0,0,1-1.819-.337,4.443,4.443,0,0,1-1.439-.931,4.311,4.311,0,0,1-.938-1.416,4.577,4.577,0,0,1-.337-1.769,4.443,4.443,0,0,1,.321-1.688,4.283,4.283,0,0,1,.914-1.39,4.227,4.227,0,0,1,1.4-.947,4.591,4.591,0,0,1,1.77-.354,4.845,4.845,0,0,1,1.891.392.072.072,0,0,0,.1-.066.071.071,0,0,1,.071-.07h1.9a.528.528,0,0,1,.528.528v7.644a4.305,4.305,0,0,1-.371,1.86,3.638,3.638,0,0,1-1,1.3,3.984,3.984,0,0,1-1.44.766,5.794,5.794,0,0,1-1.728.255,6.8,6.8,0,0,1-2.074-.3,6.531,6.531,0,0,1-1.285-.566.494.494,0,0,1-.168-.675l.52-.925a.577.577,0,0,1,.76-.213,5.225,5.225,0,0,0,.748.3,4.836,4.836,0,0,0,1.482.214,3.168,3.168,0,0,0,.815-.1,1.565,1.565,0,0,0,.65-.337,1.514,1.514,0,0,0,.436-.626A2.748,2.748,0,0,0,267.928,24.164Zm-1.778-1.827a1.923,1.923,0,0,0,1.038-.288,2.178,2.178,0,0,0,.669-.657.467.467,0,0,0,.072-.254l.014-1.8a.471.471,0,0,0-.067-.254,2.157,2.157,0,0,0-.7-.706,2,2,0,0,0-1.053-.313,2.237,2.237,0,0,0-.79.165,1.976,1.976,0,0,0-.675.429,2.058,2.058,0,0,0-.444.667,2.091,2.091,0,0,0-.165.847,2.342,2.342,0,0,0,.165.9,1.973,1.973,0,0,0,1.1,1.12A2.315,2.315,0,0,0,266.15,22.337Z" transform="translate(-174.093 -11.572)" fill="#393939"/>
      <path id="Path_19" data-name="Path 19" d="M191.819,34.409a.547.547,0,0,1-.436-.223,3.467,3.467,0,0,0-.669-.707,2.3,2.3,0,0,0-.8-.4,3.217,3.217,0,0,0-.9-.124,2.712,2.712,0,0,0-1.284.313,3.207,3.207,0,0,0-1.029.839,4.058,4.058,0,0,0-.675,1.235,4.44,4.44,0,0,0-.247,1.489,4.682,4.682,0,0,0,.238,1.506,4.074,4.074,0,0,0,.676,1.227,3.263,3.263,0,0,0,1.02.839,2.811,2.811,0,0,0,1.3.305,2.665,2.665,0,0,0,.923-.157,3.12,3.12,0,0,0,.774-.427,3.078,3.078,0,0,0,.817-.894.606.606,0,0,1,.667-.3l1.669.466a.488.488,0,0,1,.335.658,5.339,5.339,0,0,1-.558.987,5.222,5.222,0,0,1-1.193,1.186,5.673,5.673,0,0,1-1.564.789,5.862,5.862,0,0,1-1.869.288,5.648,5.648,0,0,1-1.621-.23,5.956,5.956,0,0,1-1.448-.65,6.087,6.087,0,0,1-1.219-1.013,6.491,6.491,0,0,1-.93-1.308,7,7,0,0,1-.6-1.547,6.913,6.913,0,0,1-.214-1.729,6.7,6.7,0,0,1,.469-2.51,6.507,6.507,0,0,1,1.285-2.049,5.98,5.98,0,0,1,1.909-1.383,5.586,5.586,0,0,1,2.37-.51,4.949,4.949,0,0,1,1.7.255,4.576,4.576,0,0,1,1.371.856.544.544,0,0,0,.352.131h1.115a.527.527,0,0,1,.528.528v1.727a.527.527,0,0,1-.528.528Z" transform="translate(-182.985 -9.919)" fill="#393939"/>
      <path id="Path_20" data-name="Path 20" d="M194.519,38.4a4.51,4.51,0,0,1,.337-1.744,4.367,4.367,0,0,1,2.37-2.388,4.893,4.893,0,0,1,3.655,0,4.394,4.394,0,0,1,1.44.964,4.281,4.281,0,0,1,.93,1.424,4.511,4.511,0,0,1,.338,1.744,4.682,4.682,0,0,1-.33,1.753,4.242,4.242,0,0,1-2.354,2.395,4.679,4.679,0,0,1-1.851.354,4.768,4.768,0,0,1-1.869-.354,4.28,4.28,0,0,1-2.346-2.387A4.808,4.808,0,0,1,194.519,38.4Zm2.461,0a2.409,2.409,0,0,0,.164.9,2.241,2.241,0,0,0,.445.7,2.071,2.071,0,0,0,.658.461,1.994,1.994,0,0,0,.807.165,2.064,2.064,0,0,0,.806-.156,1.9,1.9,0,0,0,.65-.461,2.11,2.11,0,0,0,.436-.7,2.517,2.517,0,0,0,.157-.905,2.566,2.566,0,0,0-.157-.922,2,2,0,0,0-.436-.7,1.741,1.741,0,0,0-.65-.436,1.965,1.965,0,0,0-.806-.149,2,2,0,0,0-.807.149,1.916,1.916,0,0,0-.658.436,2.119,2.119,0,0,0-.445.7A2.472,2.472,0,0,0,196.98,38.4Z" transform="translate(-181.679 -9.519)" fill="#393939"/>
      <path id="Path_21" data-name="Path 21" d="M210.8,37.778a1.577,1.577,0,0,0-.378-1.12,1.3,1.3,0,0,0-1.005-.411,2.145,2.145,0,0,0-.864.189,2.12,2.12,0,0,0-.729.567.487.487,0,0,0-.118.325V39.9a.528.528,0,0,0,.528.528h.327a.527.527,0,0,1,.528.528v1.2a.527.527,0,0,1-.528.528h-4.246a.528.528,0,0,1-.528-.528v-1.2a.528.528,0,0,1,.528-.528h.2a.528.528,0,0,0,.528-.528V36.939a.527.527,0,0,0-.528-.527h-.179a.528.528,0,0,1-.528-.528v-1.2a.527.527,0,0,1,.528-.528h3.113a.245.245,0,0,1,.245.245.271.271,0,0,0,.414.217,4.362,4.362,0,0,1,.779-.372,3.991,3.991,0,0,1,1.4-.247,3.133,3.133,0,0,1,2.37.865,3.462,3.462,0,0,1,.832,2.51V39.9a.528.528,0,0,0,.528.528h.155a.527.527,0,0,1,.528.528v1.2a.527.527,0,0,1-.528.528h-2.838a.527.527,0,0,1-.528-.528Z" transform="translate(-180.63 -9.509)" fill="#393939"/>
      <path id="Path_22" data-name="Path 22" d="M220.454,36.793a.752.752,0,0,1-.539-.38,1.018,1.018,0,0,0-.371-.313,2.265,2.265,0,0,0-.609-.222,3.537,3.537,0,0,0-.807-.082,2.339,2.339,0,0,0-.37.032,1.378,1.378,0,0,0-.371.1.8.8,0,0,0-.281.206.473.473,0,0,0-.107.321.7.7,0,0,0,.026.189.471.471,0,0,0,.115.174.915.915,0,0,0,.223.156,1.59,1.59,0,0,0,.378.107l1.547.305a6.838,6.838,0,0,1,1.407.412,3.1,3.1,0,0,1,.914.576,1.91,1.91,0,0,1,.493.732,2.533,2.533,0,0,1-.189,2.156,2.927,2.927,0,0,1-.9.922,4.133,4.133,0,0,1-1.25.543,5.246,5.246,0,0,1-1.4.189,5.522,5.522,0,0,1-.839-.058,4.347,4.347,0,0,1-.676-.156,3.188,3.188,0,0,1-.534-.23c-.1-.059-.19-.121-.278-.187a.574.574,0,0,0-.341-.118h-.771a.527.527,0,0,1-.528-.528V40.407a.527.527,0,0,1,.528-.528h1.752a.049.049,0,0,1,.049.049.714.714,0,0,0,.148.42,1.224,1.224,0,0,0,.363.3,2.085,2.085,0,0,0,.519.189,3.134,3.134,0,0,0,.609.057,2.3,2.3,0,0,0,1.078-.189.577.577,0,0,0,.337-.5.547.547,0,0,0-.165-.4,1.181,1.181,0,0,0-.583-.272l-1.581-.337a4.714,4.714,0,0,1-2.246-.955,2.337,2.337,0,0,1-.47-2.848,2.68,2.68,0,0,1,.783-.864,3.726,3.726,0,0,1,1.152-.56,5,5,0,0,1,1.424-.2,5.706,5.706,0,0,1,.922.066,4.715,4.715,0,0,1,.724.156,2.607,2.607,0,0,1,.56.239,3.205,3.205,0,0,1,.289.173.6.6,0,0,0,.328.107h.722a.527.527,0,0,1,.528.528v1.233a.528.528,0,0,1-.528.528Z" transform="translate(-179.429 -9.536)" fill="#393939"/>
      <path id="Path_23" data-name="Path 23" d="M226.012,33.91a.527.527,0,0,0,.528.531h.646a.527.527,0,0,1,.528.528v1.1a.527.527,0,0,1-.528.528h-.668a.528.528,0,0,0-.528.525l-.013,3.079a2.207,2.207,0,0,0,.049.511.837.837,0,0,0,.14.3.5.5,0,0,0,.23.157,1.045,1.045,0,0,0,.3.041,2.4,2.4,0,0,0,.552-.058.467.467,0,0,1,.586.34l.165.737a.482.482,0,0,1-.245.544,4.092,4.092,0,0,1-.612.239,4.219,4.219,0,0,1-1.219.156,2.735,2.735,0,0,1-.963-.173,2.263,2.263,0,0,1-.8-.519,2.58,2.58,0,0,1-.551-.881,3.255,3.255,0,0,1-.2-1.227l.021-3.246a.527.527,0,0,0-.528-.531h-.167a.527.527,0,0,1-.528-.528v-1.1a.527.527,0,0,1,.528-.528h.184a.528.528,0,0,0,.528-.523l.009-1.188a.528.528,0,0,1,.3-.472l1.5-.716a.527.527,0,0,1,.754.48Z" transform="translate(-178.544 -9.794)" fill="#393939"/>
      <path id="Path_24" data-name="Path 24" d="M236.39,36.716a.527.527,0,0,1-.528.528h-1.345a.44.44,0,0,1-.44-.44.405.405,0,0,0-.44-.417c-.061.008-.12.016-.178.026a1.649,1.649,0,0,0-.494.148,1.075,1.075,0,0,0-.353.3,1.126,1.126,0,0,0-.186.416.422.422,0,0,0-.012.106v2.506a.528.528,0,0,0,.528.528h.681a.527.527,0,0,1,.528.528v1.2a.527.527,0,0,1-.528.528h-4.508a.527.527,0,0,1-.528-.528v-1.2a.527.527,0,0,1,.528-.528h.22a.528.528,0,0,0,.528-.528V36.923a.527.527,0,0,0-.528-.527h-.2a.528.528,0,0,1-.528-.528v-1.2a.527.527,0,0,1,.528-.528H232.2a.194.194,0,0,1,.195.195.223.223,0,0,0,.335.178,2.884,2.884,0,0,1,.48-.217,3.026,3.026,0,0,1,.987-.156q.544,0,1.12.008c.187,0,.368,0,.542.007a.531.531,0,0,1,.528.53Z" transform="translate(-177.822 -9.493)" fill="#393939"/>
      <path id="Path_25" data-name="Path 25" d="M242.163,34.669a.527.527,0,0,1,.528-.528h2.978a.527.527,0,0,1,.528.528V39.9a.515.515,0,0,0,.514.514.514.514,0,0,1,.514.514v1.212a.527.527,0,0,1-.528.528h-2.863a.223.223,0,0,1-.223-.223.258.258,0,0,0-.4-.2,3.252,3.252,0,0,1-.621.305,4.235,4.235,0,0,1-2.684-.009,3.067,3.067,0,0,1-1.094-.666,3.28,3.28,0,0,1-.732-1.128,4.352,4.352,0,0,1-.264-1.589V36.923a.527.527,0,0,0-.528-.527h-.056a.528.528,0,0,1-.528-.528v-1.2a.527.527,0,0,1,.528-.528h2.714a.527.527,0,0,1,.528.528v4.493a1.724,1.724,0,0,0,.436,1.284,1.57,1.57,0,0,0,1.137.42,1.453,1.453,0,0,0,.9-.3,1.683,1.683,0,0,0,.553-.739.466.466,0,0,0,.031-.174V36.923A.527.527,0,0,0,243,36.4h-.311a.528.528,0,0,1-.528-.528Z" transform="translate(-176.903 -9.493)" fill="#393939"/>
      <path id="Path_26" data-name="Path 26" d="M253.927,37.114a.583.583,0,0,1-.421-.193,2.265,2.265,0,0,0-.625-.474,1.942,1.942,0,0,0-1.029-.2,1.9,1.9,0,0,0-.872.132,2.037,2.037,0,0,0-.676.461,2.12,2.12,0,0,0-.436.707,2.53,2.53,0,0,0-.156.914,2.275,2.275,0,0,0,.609,1.555,2.11,2.11,0,0,0,.675.453,2.7,2.7,0,0,0,.815.195.406.406,0,0,0,.082,0,2.433,2.433,0,0,0,.659-.153,2.286,2.286,0,0,0,.568-.33,2.321,2.321,0,0,0,.42-.452c.02-.028.039-.056.057-.082a.616.616,0,0,1,.661-.274l1.314.363a.464.464,0,0,1,.324.637,4.475,4.475,0,0,1-.3.533,4.018,4.018,0,0,1-.888.98A4.751,4.751,0,0,1,251.7,42.9a4.512,4.512,0,0,1-1.8-.354,4.386,4.386,0,0,1-1.416-.98,4.531,4.531,0,0,1-.931-1.448,4.807,4.807,0,0,1-.328-1.786,4.5,4.5,0,0,1,.337-1.753,4.42,4.42,0,0,1,.946-1.416,4.239,4.239,0,0,1,1.424-.946,4.364,4.364,0,0,1,1.8-.305,4.114,4.114,0,0,1,1.343.157,4.662,4.662,0,0,1,1.1.485.559.559,0,0,0,.288.082h.954a.527.527,0,0,1,.528.528v1.423a.528.528,0,0,1-.528.528Z" transform="translate(-175.713 -9.52)" fill="#393939"/>
      <path id="Path_27" data-name="Path 27" d="M259.282,33.91a.529.529,0,0,0,.528.531h.647a.528.528,0,0,1,.528.528v1.1a.528.528,0,0,1-.528.528h-.668a.528.528,0,0,0-.528.525l-.014,3.079a2.141,2.141,0,0,0,.05.511.8.8,0,0,0,.14.3.5.5,0,0,0,.23.157,1.039,1.039,0,0,0,.3.041,2.386,2.386,0,0,0,.551-.058.468.468,0,0,1,.587.34l.164.737a.48.48,0,0,1-.244.544,4.061,4.061,0,0,1-.613.239,4.205,4.205,0,0,1-1.218.156,2.731,2.731,0,0,1-.963-.173,2.263,2.263,0,0,1-.8-.519,2.58,2.58,0,0,1-.551-.881,3.232,3.232,0,0,1-.2-1.227l.021-3.246a.527.527,0,0,0-.528-.531h-.167a.527.527,0,0,1-.528-.528v-1.1a.527.527,0,0,1,.528-.528h.184a.527.527,0,0,0,.527-.523l.01-1.188a.529.529,0,0,1,.3-.472l1.5-.716a.528.528,0,0,1,.755.48Z" transform="translate(-174.777 -9.794)" fill="#393939"/>
      <path id="Path_28" data-name="Path 28" d="M261.918,35.1a.527.527,0,0,1,.528-.528h2.772a.527.527,0,0,1,.528.528v5.216a.528.528,0,0,0,.528.528h.13a.528.528,0,0,1,.528.528v1.2a.528.528,0,0,1-.528.528h-3.957a.527.527,0,0,1-.528-.528v-1.2a.527.527,0,0,1,.528-.528h.228a.528.528,0,0,0,.528-.528V37.352a.527.527,0,0,0-.528-.527h-.228a.528.528,0,0,1-.528-.528Zm1.152-3.277a1.5,1.5,0,0,1,.107-.568,1.452,1.452,0,0,1,1.358-.9,1.382,1.382,0,0,1,.56.116,1.461,1.461,0,0,1,.774.781,1.4,1.4,0,0,1,.115.568,1.461,1.461,0,0,1-.115.577,1.482,1.482,0,0,1-.774.774,1.381,1.381,0,0,1-.56.115,1.466,1.466,0,0,1-1.358-.888A1.56,1.56,0,0,1,263.07,31.82Z" transform="translate(-174.049 -9.922)" fill="#393939"/>
      <path id="Path_29" data-name="Path 29" d="M267.7,38.4a4.51,4.51,0,0,1,.337-1.744,4.368,4.368,0,0,1,2.37-2.388,4.893,4.893,0,0,1,3.655,0,4.395,4.395,0,0,1,1.44.964,4.281,4.281,0,0,1,.93,1.424,4.51,4.51,0,0,1,.337,1.744,4.681,4.681,0,0,1-.328,1.753,4.242,4.242,0,0,1-2.354,2.395,4.68,4.68,0,0,1-1.851.354,4.764,4.764,0,0,1-1.869-.354,4.28,4.28,0,0,1-2.346-2.387A4.808,4.808,0,0,1,267.7,38.4Zm2.46,0a2.408,2.408,0,0,0,.165.9,2.258,2.258,0,0,0,.444.7,2.087,2.087,0,0,0,.659.461,1.994,1.994,0,0,0,.807.165,2.064,2.064,0,0,0,.806-.156,1.9,1.9,0,0,0,.65-.461,2.129,2.129,0,0,0,.436-.7,2.516,2.516,0,0,0,.157-.905,2.566,2.566,0,0,0-.157-.922,2.015,2.015,0,0,0-.436-.7,1.741,1.741,0,0,0-.65-.436,1.965,1.965,0,0,0-.806-.149,2,2,0,0,0-.807.149,1.931,1.931,0,0,0-.659.436,2.135,2.135,0,0,0-.444.7A2.471,2.471,0,0,0,270.16,38.4Z" transform="translate(-173.395 -9.519)" fill="#393939"/>
      <path id="Path_30" data-name="Path 30" d="M283.983,37.778a1.572,1.572,0,0,0-.378-1.12,1.3,1.3,0,0,0-1-.411,2.145,2.145,0,0,0-.864.189,2.123,2.123,0,0,0-.73.567.493.493,0,0,0-.118.325V39.9a.529.529,0,0,0,.528.528h.328a.528.528,0,0,1,.528.528v1.2a.528.528,0,0,1-.528.528H277.5a.527.527,0,0,1-.528-.528v-1.2a.527.527,0,0,1,.528-.528h.2a.528.528,0,0,0,.528-.528V36.939a.527.527,0,0,0-.528-.527h-.179a.528.528,0,0,1-.528-.528v-1.2a.527.527,0,0,1,.528-.528h3.113a.245.245,0,0,1,.245.245.271.271,0,0,0,.414.217,4.325,4.325,0,0,1,.779-.372,3.991,3.991,0,0,1,1.4-.247,3.135,3.135,0,0,1,2.37.865,3.462,3.462,0,0,1,.832,2.51V39.9a.528.528,0,0,0,.528.528h.155a.528.528,0,0,1,.528.528v1.2a.528.528,0,0,1-.528.528h-2.839a.528.528,0,0,1-.528-.528Z" transform="translate(-172.345 -9.509)" fill="#393939"/>
    </g>
    <rect id="Rectangle_92" data-name="Rectangle 92" width="1.113" height="33.379" transform="translate(191.899 13.375)" fill="#393939" opacity="0.3" style="isolation: isolate"/>
  </g>
</svg>
